<?xml version="1.0" encoding="utf-8"?>
<!-- Generator: Adobe Illustrator 15.1.0, SVG Export Plug-In . SVG Version: 6.00 Build 0)  -->
<!DOCTYPE svg PUBLIC "-//W3C//DTD SVG 1.1//EN" "http://www.w3.org/Graphics/SVG/1.1/DTD/svg11.dtd">
<svg version="1.1" id="Layer_1" xmlns="http://www.w3.org/2000/svg" xmlns:xlink="http://www.w3.org/1999/xlink" x="0px" y="0px"
	 width="1280px" height="800px" viewBox="0 0 1280 800" enable-background="new 0 0 1280 800" xml:space="preserve">
<g>
	<g>
		<path fill="#2F99C9" d="M0,0c5.551,3.782,10.843,7.824,16.144,11.857c4.623,4.709,9.32,9.345,13.979,14.021l28,28l28,28l14,14
			c4.021,5.312,8.062,10.604,11.879,16.121c-5.518-3.815-10.811-7.856-16.121-11.879l-14-14l-28-28l-28-28
			c-4.676-4.657-9.313-9.354-14.021-13.979C7.824,10.843,3.782,5.551,0,0z"/>
	</g>
	<path fill="#2F99C9" d="M97.996,60.135l7.164-4.134l-7.163-4.136l6.218-5.453l-7.832-2.662l5.036-6.562l-8.202-1.08l3.659-7.418
		l-8.254,0.539l2.141-7.987l-7.992,2.138l0.543-8.252l-7.42,3.658l-1.079-8.202l-6.562,5.036l-2.658-7.833l-5.457,6.219L56.001,6.84
		l-4.135,7.165L46.41,7.786l-2.659,7.833l-6.562-5.036l-1.08,8.202l-7.418-3.66l0.541,8.254l-7.99-2.141l2.14,7.99l-8.253-0.541
		l3.659,7.418l-8.202,1.08l5.036,6.562l-7.834,2.659l6.219,5.456l-7.164,4.134l7.164,4.136l-6.22,5.457l7.835,2.658l-5.037,6.562
		l8.202,1.08l-3.659,7.42l8.254-0.541l-2.141,7.99l7.992-2.141l-0.542,8.255l7.42-3.659l1.08,8.201l6.562-5.035l2.658,7.832
		l5.455-6.217l4.135,7.162l4.138-7.162l5.454,6.218l2.662-7.833l6.561,5.035l1.082-8.201l7.418,3.659l-0.541-8.255l7.99,2.143
		l-2.14-7.992l8.253,0.543l-3.659-7.422l8.201-1.078l-5.034-6.563l7.832-2.658L97.996,60.135z"/>
	<text transform="matrix(1 0 0 1 27.6338 67.2402)" fill="#00BCD4" font-family="'LucidaHandwriting-Italic'" font-size="32.297">N</text>
	<text transform="matrix(1 0 0 1 53.9229 67.2402)" fill="#00BCD4" font-family="'LucidaHandwriting-Italic'" font-size="32.297">H</text>
</g>
</svg>
